<svg width="124" height="30" viewBox="0 0 124 30" fill="none" xmlns="http://www.w3.org/2000/svg">
<path d="M35.3726 1.01137C35.3726 0.454666 35.8272 0.00514113 36.3839 0.0114361L79.5882 0.5L122.793 0.0114361C123.349 0.00514113 123.804 0.454666 123.804 1.01137V28.9886C123.804 29.5453 123.349 29.9949 122.793 29.9886L79.5882 29.5L36.3839 29.9886C35.8272 29.9949 35.3726 29.5453 35.3726 28.9886V1.01137Z" fill="#FDDC27"/>
<path d="M60.0163 19.1465C60.0163 22.7103 57.4551 24.4922 52.3327 24.4922C50.5918 24.4922 48.974 24.2826 47.4792 23.8633L48.1491 20.8145C49.6257 21.3249 51.0202 21.5801 52.3327 21.5801C53.791 21.5801 54.8392 21.4388 55.4772 21.1562C56.1153 20.8737 56.4343 20.3997 56.4343 19.7344C56.4343 19.0417 56.1335 18.4583 55.5319 17.9844C55.0124 17.5651 53.9597 17.0182 52.3737 16.3438C50.9336 15.724 49.8627 15.0495 49.1608 14.3203C48.2767 13.3997 47.8347 12.265 47.8347 10.916C47.8347 9.34831 48.4134 8.1224 49.571 7.23828C50.7377 6.35417 52.4102 5.91211 54.5886 5.91211C56.375 5.91211 57.8744 6.0625 59.0866 6.36328L58.5807 9.39844C57.3503 8.95182 56.0196 8.72852 54.5886 8.72852C52.4375 8.72852 51.362 9.30273 51.362 10.4512C51.362 11.0618 51.6127 11.5586 52.114 11.9414C52.5515 12.2695 53.5039 12.7298 54.9714 13.3223C56.53 13.9512 57.6966 14.6439 58.4714 15.4004C59.5013 16.4121 60.0163 17.6608 60.0163 19.1465ZM70.7077 21.4434L70.4753 23.877C69.8373 24.1504 69.0352 24.2871 68.069 24.2871C66.5925 24.2871 65.4805 23.8861 64.7331 23.084C63.9857 22.2819 63.612 20.737 63.612 18.4492C63.612 17.0729 63.6211 15.5143 63.6393 13.7734C63.1745 13.7734 62.5456 13.8008 61.7526 13.8555L61.8483 11.1621C62.5502 11.2168 63.2018 11.2441 63.8034 11.2441C63.8125 10.7611 63.849 9.48958 63.9128 7.42969L67.153 7.0332C67.0163 8.84701 66.9479 10.2507 66.9479 11.2441C67.7136 11.2441 68.8574 11.2077 70.3796 11.1348L70.2702 13.8555C68.8848 13.8008 67.7591 13.7734 66.8932 13.7734C66.875 14.9857 66.8659 16.2572 66.8659 17.5879C66.8659 19.2103 67.03 20.2995 67.3581 20.8555C67.6862 21.4023 68.265 21.6758 69.0944 21.6758C69.5957 21.6758 70.1335 21.5983 70.7077 21.4434ZM85.9518 17.2051C85.9518 19.502 85.2455 21.2975 83.8327 22.5918C82.4199 23.8861 80.7565 24.5332 78.8425 24.5332C77.0196 24.5332 75.4564 23.9453 74.153 22.7695C72.8496 21.5846 72.1979 19.9212 72.1979 17.7793C72.1979 15.4733 72.9089 13.6686 74.3307 12.3652C75.7526 11.0618 77.4206 10.4102 79.3347 10.4102C81.1485 10.4102 82.7025 11.0072 83.9968 12.2012C85.3002 13.3861 85.9518 15.054 85.9518 17.2051ZM82.3835 17.6152C82.3835 16.2936 82.0736 15.1862 81.4538 14.293C80.834 13.3906 80.0274 12.9395 79.0339 12.9395C78.0677 12.9395 77.2793 13.3587 76.6686 14.1973C76.0671 15.0358 75.7663 16.084 75.7663 17.3418C75.7663 18.6634 76.0762 19.7754 76.696 20.6777C77.3158 21.571 78.1224 22.0176 79.1159 22.0176C80.0821 22.0176 80.8659 21.5983 81.4675 20.7598C82.0781 19.9212 82.3835 18.873 82.3835 17.6152ZM97.4362 11.0117L96.6432 14.2109C95.9688 13.9375 95.2852 13.8008 94.5925 13.8008C93.2526 13.8008 92.3685 14.4023 91.9401 15.6055C91.9401 19.2422 91.9675 22.0404 92.0222 24H88.3854C88.5404 21.2565 88.6179 19.0143 88.6179 17.2734C88.6179 15.1042 88.39 13.0488 87.9343 11.1074L91.4206 10.7246C91.5755 11.7272 91.653 12.3151 91.653 12.4883H91.8718C92.7103 11.2031 93.8268 10.5605 95.2214 10.5605C95.8776 10.5605 96.6159 10.7109 97.4362 11.0117ZM111.094 16.1113C111.094 16.5762 111.067 17.1823 111.012 17.9297L102.208 18.0801C102.335 19.11 102.777 19.9668 103.534 20.6504C104.29 21.334 105.284 21.6758 106.514 21.6758C107.882 21.6758 109.335 21.4707 110.876 21.0605L110.602 23.7129C109.344 24.1686 107.786 24.3965 105.926 24.3965C103.575 24.3965 101.77 23.7357 100.512 22.4141C99.2637 21.0924 98.6393 19.502 98.6393 17.6426C98.6393 15.7012 99.2318 14.0195 100.417 12.5977C101.611 11.1667 103.265 10.4512 105.38 10.4512C107.312 10.4512 108.747 10.9753 109.686 12.0234C110.625 13.0716 111.094 14.4342 111.094 16.1113ZM107.895 15.9883C107.895 13.8919 107.002 12.8438 105.216 12.8438C103.511 12.8438 102.499 13.9284 102.18 16.0977L107.895 15.9883Z" fill="black"/>
<path d="M16.5799 24H12.533C11.4757 20.7734 10.6645 18.7819 10.0994 18.0254C9.53432 17.2689 8.62286 16.8906 7.36505 16.8906C6.83641 16.8906 6.33055 16.8952 5.84747 16.9043C5.84747 19.2467 5.88849 21.612 5.97052 24H2.16974C2.28823 21.2474 2.34747 18.1439 2.34747 14.6895C2.34747 11.3717 2.28823 8.54167 2.16974 6.19922H4.53497C4.80841 6.19922 5.37807 6.18555 6.24396 6.1582C7.11896 6.13086 7.9256 6.11719 8.66388 6.11719C12.8475 6.11719 14.9393 7.54818 14.9393 10.4102C14.9393 12.6797 13.7453 14.2611 11.3572 15.1543V15.3594C12.2778 15.6146 13.0845 16.3346 13.7772 17.5195C14.4699 18.6953 15.4041 20.8555 16.5799 24ZM11.4529 11.4219C11.4529 9.60807 10.2863 8.70117 7.95294 8.70117C7.09617 8.70117 6.33966 8.76497 5.68341 8.89258C5.78367 10.3053 5.8338 12.1465 5.8338 14.416C6.3351 14.4342 6.75893 14.4434 7.10529 14.4434C10.0037 14.4434 11.4529 13.4362 11.4529 11.4219Z" fill="#FF0000"/>
<path d="M30.2791 16.1113C30.2791 16.5762 30.2518 17.1823 30.1971 17.9297L21.3924 18.0801C21.52 19.11 21.9621 19.9668 22.7186 20.6504C23.4751 21.334 24.4686 21.6758 25.699 21.6758C27.0662 21.6758 28.52 21.4707 30.0604 21.0605L29.7869 23.7129C28.5291 24.1686 26.9705 24.3965 25.1111 24.3965C22.7596 24.3965 20.9549 23.7357 19.6971 22.4141C18.4484 21.0924 17.824 19.502 17.824 17.6426C17.824 15.7012 18.4165 14.0195 19.6014 12.5977C20.7954 11.1667 22.4497 10.4512 24.5643 10.4512C26.4966 10.4512 27.9321 10.9753 28.8709 12.0234C29.8097 13.0716 30.2791 14.4342 30.2791 16.1113ZM27.0799 15.9883C27.0799 13.8919 26.1867 12.8438 24.4002 12.8438C22.6958 12.8438 21.6841 13.9284 21.3651 16.0977L27.0799 15.9883Z" fill="black"/>
</svg>
